<?xml version="1.0" encoding="UTF-8" standalone="no"?>
<svg width="243px" height="50px" viewBox="0 0 243 50" version="1.1" xmlns="http://www.w3.org/2000/svg" xmlns:xlink="http://www.w3.org/1999/xlink">
    <!-- Generator: Sketch 3.7.2 (28276) - http://www.bohemiancoding.com/sketch -->
    <title>Artboard 1</title>
    <desc>Created with Sketch.</desc>
    <defs>
        <rect id="path-1" x="0" y="0" width="243" height="45"></rect>
    </defs>
    <g id="Page-1" stroke="none" stroke-width="1" fill="none" fill-rule="evenodd">
        <g id="Artboard-1">
            <mask id="mask-2" fill="white">
                <use xlink:href="#path-1"></use>
            </mask>
            <g id="Rectangle-1"></g>
            <path d="M16.84375,4.5625 L16.84375,42.53125 C16.84375,44.3229256 16.973957,45.5104137 17.234375,46.09375 C17.494793,46.6770863 17.8958306,47.1197902 18.4375,47.421875 C18.9791694,47.7239598 19.9895759,47.875 21.46875,47.875 L21.46875,49 L7.4375,49 L7.4375,47.875 C8.75000656,47.875 9.64583094,47.7395847 10.125,47.46875 C10.6041691,47.1979153 10.9791653,46.7500031 11.25,46.125 C11.5208347,45.4999969 11.65625,44.3020922 11.65625,42.53125 L11.65625,16.53125 C11.65625,13.3020672 11.5833341,11.317712 11.4375,10.578125 C11.2916659,9.83853797 11.0572933,9.33333469 10.734375,9.0625 C10.4114567,8.79166531 10.0000025,8.65625 9.5,8.65625 C8.95833062,8.65625 8.2708375,8.822915 7.4375,9.15625 L6.90625,8.0625 L15.4375,4.5625 L16.84375,4.5625 Z M38.78125,19.53125 C43.114605,19.53125 46.5937369,21.1770669 49.21875,24.46875 C51.4479278,27.2812641 52.5625,30.5103984 52.5625,34.15625 C52.5625,36.7187628 51.9479228,39.3124869 50.71875,41.9375 C49.4895772,44.5625131 47.7968858,46.54166 45.640625,47.875 C43.4843642,49.20834 41.0833466,49.875 38.4375,49.875 C34.1249784,49.875 30.6979294,48.1562672 28.15625,44.71875 C26.0104059,41.8229022 24.9375,38.5729347 24.9375,34.96875 C24.9375,32.3437369 25.5885352,29.734388 26.890625,27.140625 C28.1927148,24.546862 29.9062394,22.6302145 32.03125,21.390625 C34.1562606,20.1510355 36.4062381,19.53125 38.78125,19.53125 L38.78125,19.53125 Z M37.8125,21.5625 C36.7083278,21.5625 35.5989639,21.8906217 34.484375,22.546875 C33.3697861,23.2031283 32.4687534,24.3541584 31.78125,26 C31.0937466,27.6458416 30.75,29.7604038 30.75,32.34375 C30.75,36.5104375 31.5781167,40.1041516 33.234375,43.125 C34.8906333,46.1458484 37.0729031,47.65625 39.78125,47.65625 C41.8020934,47.65625 43.4687434,46.822925 44.78125,45.15625 C46.0937566,43.489575 46.75,40.6250203 46.75,36.5625 C46.75,31.4791412 45.6562609,27.4791813 43.46875,24.5625 C41.9895759,22.56249 40.1041781,21.5625 37.8125,21.5625 L37.8125,21.5625 Z M55.1875,20.375 L67.1875,20.375 L67.1875,21.53125 C66.0833278,21.6145838 65.3593767,21.8124984 65.015625,22.125 C64.6718733,22.4375016 64.5,22.8854137 64.5,23.46875 C64.5,24.1145866 64.6770816,24.8958288 65.03125,25.8125 L71.15625,42.28125 L77.3125,28.875 L75.6875,24.65625 C75.1874975,23.4062437 74.5312541,22.5416691 73.71875,22.0625 C73.2604144,21.7708319 72.4062563,21.5937503 71.15625,21.53125 L71.15625,20.375 L84.78125,20.375 L84.78125,21.53125 C83.2812425,21.5937503 82.2187531,21.8645809 81.59375,22.34375 C81.1770813,22.677085 80.96875,23.2083297 80.96875,23.9375 C80.96875,24.3541687 81.0520825,24.7812478 81.21875,25.21875 L87.71875,41.65625 L93.75,25.8125 C94.1666687,24.6874944 94.375,23.79167 94.375,23.125 C94.375,22.7291647 94.171877,22.3750016 93.765625,22.0625 C93.359373,21.7499984 92.5625059,21.5729169 91.375,21.53125 L91.375,20.375 L100.40625,20.375 L100.40625,21.53125 C98.5937409,21.8020847 97.2604209,23.0312391 96.40625,25.21875 L86.84375,49.875 L85.5625,49.875 L78.40625,31.59375 L70.0625,49.875 L68.90625,49.875 L59.71875,25.8125 C59.1145803,24.2916591 58.5208363,23.2656277 57.9375,22.734375 C57.3541637,22.2031223 56.4375063,21.8020847 55.1875,21.53125 L55.1875,20.375 Z M123.21875,45.78125 C121.82291,47.2395906 120.45834,48.2864552 119.125,48.921875 C117.79166,49.5572948 116.354174,49.875 114.8125,49.875 C111.687484,49.875 108.958345,48.5677214 106.625,45.953125 C104.291655,43.3385286 103.125,39.9791872 103.125,35.875 C103.125,31.7708128 104.416654,28.015642 107,24.609375 C109.583346,21.203108 112.90623,19.5 116.96875,19.5 C119.489596,19.5 121.572908,20.3020753 123.21875,21.90625 L123.21875,16.625 C123.21875,13.3541503 123.140626,11.3437538 122.984375,10.59375 C122.828124,9.84374625 122.583335,9.33333469 122.25,9.0625 C121.916665,8.79166531 121.500002,8.65625 121,8.65625 C120.458331,8.65625 119.739588,8.822915 118.84375,9.15625 L118.4375,8.0625 L126.96875,4.5625 L128.375,4.5625 L128.375,37.65625 C128.375,41.0104334 128.453124,43.057288 128.609375,43.796875 C128.765626,44.536462 129.015623,45.0520819 129.359375,45.34375 C129.703127,45.6354181 130.104164,45.78125 130.5625,45.78125 C131.125003,45.78125 131.874995,45.6041684 132.8125,45.25 L133.15625,46.34375 L124.65625,49.875 L123.21875,49.875 L123.21875,45.78125 Z M123.21875,43.59375 L123.21875,28.84375 C123.093749,27.4270763 122.718753,26.1354225 122.09375,24.96875 C121.468747,23.8020775 120.64063,22.921878 119.609375,22.328125 C118.57812,21.734372 117.572922,21.4375 116.59375,21.4375 C114.760408,21.4375 113.125007,22.2604084 111.6875,23.90625 C109.791657,26.0729275 108.84375,29.2395625 108.84375,33.40625 C108.84375,37.6146044 109.760408,40.8385305 111.59375,43.078125 C113.427092,45.3177195 115.468739,46.4375 117.71875,46.4375 C119.614593,46.4375 121.447908,45.4895928 123.21875,43.59375 L123.21875,43.59375 Z M149,19.53125 C153.333355,19.53125 156.812487,21.1770669 159.4375,24.46875 C161.666678,27.2812641 162.78125,30.5103984 162.78125,34.15625 C162.78125,36.7187628 162.166673,39.3124869 160.9375,41.9375 C159.708327,44.5625131 158.015636,46.54166 155.859375,47.875 C153.703114,49.20834 151.302097,49.875 148.65625,49.875 C144.343728,49.875 140.916679,48.1562672 138.375,44.71875 C136.229156,41.8229022 135.15625,38.5729347 135.15625,34.96875 C135.15625,32.3437369 135.807285,29.734388 137.109375,27.140625 C138.411465,24.546862 140.124989,22.6302145 142.25,21.390625 C144.375011,20.1510355 146.624988,19.53125 149,19.53125 L149,19.53125 Z M148.03125,21.5625 C146.927078,21.5625 145.817714,21.8906217 144.703125,22.546875 C143.588536,23.2031283 142.687503,24.3541584 142,26 C141.312497,27.6458416 140.96875,29.7604038 140.96875,32.34375 C140.96875,36.5104375 141.796867,40.1041516 143.453125,43.125 C145.109383,46.1458484 147.291653,47.65625 150,47.65625 C152.020843,47.65625 153.687493,46.822925 155,45.15625 C156.312507,43.489575 156.96875,40.6250203 156.96875,36.5625 C156.96875,31.4791412 155.875011,27.4791813 153.6875,24.5625 C152.208326,22.56249 150.322928,21.5625 148.03125,21.5625 L148.03125,21.5625 Z M165.40625,20.375 L177.40625,20.375 L177.40625,21.53125 C176.302078,21.6145838 175.578127,21.8124984 175.234375,22.125 C174.890623,22.4375016 174.71875,22.8854137 174.71875,23.46875 C174.71875,24.1145866 174.895832,24.8958288 175.25,25.8125 L181.375,42.28125 L187.53125,28.875 L185.90625,24.65625 C185.406248,23.4062437 184.750004,22.5416691 183.9375,22.0625 C183.479164,21.7708319 182.625006,21.5937503 181.375,21.53125 L181.375,20.375 L195,20.375 L195,21.53125 C193.499992,21.5937503 192.437503,21.8645809 191.8125,22.34375 C191.395831,22.677085 191.1875,23.2083297 191.1875,23.9375 C191.1875,24.3541687 191.270832,24.7812478 191.4375,25.21875 L197.9375,41.65625 L203.96875,25.8125 C204.385419,24.6874944 204.59375,23.79167 204.59375,23.125 C204.59375,22.7291647 204.390627,22.3750016 203.984375,22.0625 C203.578123,21.7499984 202.781256,21.5729169 201.59375,21.53125 L201.59375,20.375 L210.625,20.375 L210.625,21.53125 C208.812491,21.8020847 207.479171,23.0312391 206.625,25.21875 L197.0625,49.875 L195.78125,49.875 L188.625,31.59375 L180.28125,49.875 L179.125,49.875 L169.9375,25.8125 C169.33333,24.2916591 168.739586,23.2656277 168.15625,22.734375 C167.572914,22.2031223 166.656256,21.8020847 165.40625,21.53125 L165.40625,20.375 Z M221.5625,25.59375 C224.916683,21.5520631 228.114568,19.53125 231.15625,19.53125 C232.718758,19.53125 234.062494,19.9218711 235.1875,20.703125 C236.312506,21.4843789 237.20833,22.7708244 237.875,24.5625 C238.333336,25.8125063 238.5625,27.7291538 238.5625,30.3125 L238.5625,42.53125 C238.5625,44.3437591 238.708332,45.5729134 239,46.21875 C239.229168,46.7395859 239.598956,47.1458319 240.109375,47.4375 C240.619794,47.7291681 241.562493,47.875 242.9375,47.875 L242.9375,49 L228.78125,49 L228.78125,47.875 L229.375,47.875 C230.70834,47.875 231.640622,47.671877 232.171875,47.265625 C232.703128,46.859373 233.072916,46.2604206 233.28125,45.46875 C233.364584,45.1562484 233.40625,44.1770916 233.40625,42.53125 L233.40625,30.8125 C233.40625,28.2083203 233.067712,26.3177142 232.390625,25.140625 C231.713538,23.9635358 230.572925,23.375 228.96875,23.375 C226.489571,23.375 224.020846,24.7291531 221.5625,27.4375 L221.5625,42.53125 C221.5625,44.4687597 221.677082,45.6666644 221.90625,46.125 C222.197918,46.7291697 222.598956,47.1718736 223.109375,47.453125 C223.619794,47.7343764 224.656242,47.875 226.21875,47.875 L226.21875,49 L212.0625,49 L212.0625,47.875 L212.6875,47.875 C214.145841,47.875 215.130206,47.505212 215.640625,46.765625 C216.151044,46.026038 216.40625,44.6145937 216.40625,42.53125 L216.40625,31.90625 C216.40625,28.4687328 216.328126,26.3750038 216.171875,25.625 C216.015624,24.8749962 215.776043,24.3645847 215.453125,24.09375 C215.130207,23.8229153 214.697919,23.6875 214.15625,23.6875 C213.572914,23.6875 212.875004,23.8437484 212.0625,24.15625 L211.59375,23.03125 L220.21875,19.53125 L221.5625,19.53125 L221.5625,25.59375 Z" id="lowdown" fill="#171717" mask="url(#mask-2)"></path>
            <path d="M7.5,45.5 L241.5,45.5" id="Line" stroke="#779798" stroke-linecap="square"></path>
        </g>
    </g>
</svg>